<svg width="5" height="17" viewBox="0 0 5 17" fill="none" xmlns="http://www.w3.org/2000/svg">
<g id="Group 6">
<g id="Vector">
<path d="M2.41667 4.66667C3.56726 4.66667 4.5 3.73393 4.5 2.58333C4.5 1.43274 3.56726 0.5 2.41667 0.5C1.26607 0.5 0.333334 1.43274 0.333334 2.58333C0.333334 3.73393 1.26607 4.66667 2.41667 4.66667Z" fill="#1C4980"/>
<path d="M2.41667 10.5C3.56726 10.5 4.5 9.56726 4.5 8.41667C4.5 7.26607 3.56726 6.33333 2.41667 6.33333C1.26607 6.33333 0.333334 7.26607 0.333334 8.41667C0.333334 9.56726 1.26607 10.5 2.41667 10.5Z" fill="#1C4980"/>
<path d="M2.41667 16.3333C3.56726 16.3333 4.5 15.4006 4.5 14.25C4.5 13.0994 3.56726 12.1667 2.41667 12.1667C1.26607 12.1667 0.333334 13.0994 0.333334 14.25C0.333334 15.4006 1.26607 16.3333 2.41667 16.3333Z" fill="#1C4980"/>
</g>
</g>
</svg>
